<?xml version="1.0" encoding="UTF-8"?>
<svg version="1.1" xmlns="http://www.w3.org/2000/svg" width="208" height="120">
<path d="M0 0 C4.29 0 8.58 0 13 0 C13.33 5.61 13.66 11.22 14 17 C15.32 16.01 16.64 15.02 18 14 C23.26550334 12.24483222 29.09603473 11.92784064 34.359375 13.87109375 C40.03763826 17.12648904 42.82056698 21.1668427 44.75 27.4375 C45.43255279 34.43366605 45.43107942 40.69087699 42 47 C38.24261395 51.18791987 34.54080809 54.62239634 28.765625 55.23828125 C22.5581569 55.42142084 19.10745304 54.55301081 14 51 C13.67 51.99 13.34 52.98 13 54 C8.71 54 4.42 54 0 54 C0 36.18 0 18.36 0 0 Z M16 27 C13.61775072 29.38224928 13.67982851 30.0502037 13.625 33.3125 C13.71928826 36.56020682 14.03350215 38.06840022 15.5 41.0625 C18.36210472 43.28063116 20.40745494 43.7336761 24.02734375 43.4765625 C27.60083837 42.61326281 29.00000663 40.99999006 31 38 C31.9669424 33.75572185 31.47541541 30.85940478 29.375 27.0625 C24.62980257 22.94167065 20.87183319 23.34612511 16 27 Z " fill="#FFC706" transform="translate(0,34)"/>
<path d="M0 0 C4.29 0 8.58 0 13 0 C13.33 8.91 13.66 17.82 14 27 C15.485 24.855 16.97 22.71 18.5 20.5 C20.91946775 17.34630181 23.1763688 14.53691313 27.09130859 13.38427734 C31.78439199 12.85657868 36.34488356 13.31662657 41 14 C36.68339698 20.00073223 31.97966692 25.54006063 27 31 C27.42410156 31.66644531 27.84820312 32.33289063 28.28515625 33.01953125 C29.51621482 34.95405187 30.74664104 36.88897498 31.9765625 38.82421875 C33.32080361 40.93400257 34.66973556 43.04080527 36.0234375 45.14453125 C36.65507812 46.12808594 37.28671875 47.11164063 37.9375 48.125 C38.52402344 49.03507812 39.11054688 49.94515625 39.71484375 50.8828125 C41 53 41 53 41 54 C29.96174562 55.4467615 29.96174562 55.4467615 25 54 C21.26529695 50.49102076 19.10087144 46.6440316 17 42 C14.95780294 43.69179328 14.08206694 44.63727666 13.48828125 47.26171875 C13.43027344 48.06222656 13.37226563 48.86273438 13.3125 49.6875 C13.1578125 51.8221875 13.1578125 51.8221875 13 54 C8.71 54 4.42 54 0 54 C0 36.18 0 18.36 0 0 Z " fill="#FFC706" transform="translate(122,34)"/>
<path d="M0 0 C4.4400584 2.25302327 6.09740785 4.80339404 7.90234375 9.30859375 C8.24291992 12.83544922 8.24291992 12.83544922 8.1953125 16.67578125 C8.19106766 17.35536896 8.18682281 18.03495667 8.18244934 18.73513794 C8.16578641 20.88504299 8.12816091 23.03397674 8.08984375 25.18359375 C8.07478075 26.64972595 8.06109518 28.11587299 8.04882812 29.58203125 C8.01592455 33.1578625 7.96423038 36.73313316 7.90234375 40.30859375 C3.61234375 40.30859375 -0.67765625 40.30859375 -5.09765625 40.30859375 C-5.1234375 38.5503125 -5.14921875 36.79203125 -5.17578125 34.98046875 C-5.23205727 32.67315209 -5.28940471 30.36586138 -5.34765625 28.05859375 C-5.36183594 26.89972656 -5.37601563 25.74085937 -5.390625 24.546875 C-5.42285156 23.43183594 -5.45507812 22.31679687 -5.48828125 21.16796875 C-5.50922852 20.14155273 -5.53017578 19.11513672 -5.55175781 18.05761719 C-6.22147889 14.68505042 -7.49652265 13.47469455 -10.09765625 11.30859375 C-12.11811067 11.91043124 -14.11876664 12.58165471 -16.09765625 13.30859375 C-17.41127323 15.93582771 -17.31019534 18.03469936 -17.4140625 20.97265625 C-17.45595703 22.09414062 -17.49785156 23.215625 -17.54101562 24.37109375 C-17.59999023 26.13453125 -17.59999023 26.13453125 -17.66015625 27.93359375 C-17.70333984 29.11695312 -17.74652344 30.3003125 -17.79101562 31.51953125 C-17.89732963 34.44907282 -17.99801842 37.37881752 -18.09765625 40.30859375 C-22.71765625 40.30859375 -27.33765625 40.30859375 -32.09765625 40.30859375 C-32.09765625 27.10859375 -32.09765625 13.90859375 -32.09765625 0.30859375 C-27.47765625 0.30859375 -22.85765625 0.30859375 -18.09765625 0.30859375 C-17.76765625 0.96859375 -17.43765625 1.62859375 -17.09765625 2.30859375 C-16.47890625 1.81359375 -15.86015625 1.31859375 -15.22265625 0.80859375 C-10.30623787 -1.55128707 -5.20831789 -1.71670813 0 0 Z " fill="#FFC706" transform="translate(111.09765625,47.69140625)"/>
<path d="M0 0 C4.29 0 8.58 0 13 0 C13 4.62 13 9.24 13 14 C15.64 14 18.28 14 21 14 C21 17.63 21 21.26 21 25 C18.36 25 15.72 25 13 25 C13.495 32.92 13.495 32.92 14 41 C18.47702364 42.06537205 18.47702364 42.06537205 21 42 C21.66 45.3 22.32 48.6 23 52 C18.38760676 54.76743594 14.32939783 55.93444162 9 55 C5.68369922 53.73448405 2.80606473 52.23687522 0.81689453 49.18457031 C-0.15486649 46.58585018 -0.22754212 44.56862265 -0.1953125 41.796875 C-0.18564453 40.32734375 -0.18564453 40.32734375 -0.17578125 38.828125 C-0.15902344 37.81234375 -0.14226562 36.7965625 -0.125 35.75 C-0.11597656 34.71875 -0.10695312 33.6875 -0.09765625 32.625 C-0.07412011 30.08309713 -0.04124023 27.5416672 0 25 C-1.65 25 -3.3 25 -5 25 C-5 21.37 -5 17.74 -5 14 C-3.35 14 -1.7 14 0 14 C0 9.38 0 4.76 0 0 Z " fill="#63B945" transform="translate(185,34)"/>
<path d="M0 0 C4.62 0 9.24 0 14 0 C14 17.82 14 35.64 14 54 C9.38 54 4.76 54 0 54 C0 36.18 0 18.36 0 0 Z " fill="#FFC606" transform="translate(46,34)"/>
<path d="M0 0 C4.62 0 9.24 0 14 0 C14 13.53 14 27.06 14 41 C9.38 41 4.76 41 0 41 C0 27.47 0 13.94 0 0 Z " fill="#63B945" transform="translate(164,47)"/>
<path d="M0 0 C4.62 0 9.24 0 14 0 C14 13.2 14 26.4 14 40 C9.38 40 4.76 40 0 40 C0 26.8 0 13.6 0 0 Z " fill="#FFC706" transform="translate(62,48)"/>
<path d="M0 0 C4.62 0 9.24 0 14 0 C14 3.63 14 7.26 14 11 C9.38 11 4.76 11 0 11 C0 7.37 0 3.74 0 0 Z " fill="#63B945" transform="translate(164,34)"/>
<path d="M0 0 C4.62 0 9.24 0 14 0 C14 3.63 14 7.26 14 11 C11.85423363 11.02685938 9.70837355 11.04633088 7.5625 11.0625 C6.36753906 11.07410156 5.17257813 11.08570313 3.94140625 11.09765625 C1 11 1 11 0 10 C-0.14257189 6.66381769 -0.04228157 3.34024394 0 0 Z " fill="#FFC706" transform="translate(62,34)"/>
</svg>
